<svg width="24" height="16" viewBox="0 0 24 16" fill="none" xmlns="http://www.w3.org/2000/svg">
<path d="M0 1C0 0.447715 0.447715 0 1 0H23C23.5523 0 24 0.447715 24 1C24 1.55228 23.5523 2 23 2H1C0.447716 2 0 1.55228 0 1Z" fill="url(#paint0_linear)"/>
<path d="M0 8C0 7.44772 0.447715 7 1 7H13C13.5523 7 14 7.44772 14 8C14 8.55229 13.5523 9 13 9H1C0.447716 9 0 8.55229 0 8Z" fill="url(#paint1_linear)"/>
<path d="M1 14C0.447715 14 0 14.4477 0 15C0 15.5523 0.447716 16 1 16H17C17.5523 16 18 15.5523 18 15C18 14.4477 17.5523 14 17 14H1Z" fill="url(#paint2_linear)"/>
<defs>
<linearGradient id="paint0_linear" x1="-0.810814" y1="6.60594" x2="21.5594" y2="22.4437" gradientUnits="userSpaceOnUse">
<stop stop-color="#00A8E3"/>
<stop offset="1" stop-color="#386AB3"/>
</linearGradient>
<linearGradient id="paint1_linear" x1="-0.810814" y1="6.60594" x2="21.5594" y2="22.4437" gradientUnits="userSpaceOnUse">
<stop stop-color="#00A8E3"/>
<stop offset="1" stop-color="#386AB3"/>
</linearGradient>
<linearGradient id="paint2_linear" x1="-0.810814" y1="6.60594" x2="21.5594" y2="22.4437" gradientUnits="userSpaceOnUse">
<stop stop-color="#00A8E3"/>
<stop offset="1" stop-color="#386AB3"/>
</linearGradient>
</defs>
</svg>
