<svg width="24" height="24" viewBox="0 0 24 24" fill="none" xmlns="http://www.w3.org/2000/svg">
<path fill-rule="evenodd" clip-rule="evenodd" d="M4 0C1.79083 0 0 1.79086 0 4V20C0 22.2091 1.79083 24 4 24H20C22.2092 24 24 22.2091 24 20V4C24 1.79086 22.2092 0 20 0H4ZM11.5192 5.24842C11.9442 5.05323 12.3084 5 12.6878 5H14.5696V7.41318H13.4466C13.1127 7.41318 12.9003 7.51965 12.7941 7.73257C12.7181 7.87453 12.6878 8.12294 12.6878 8.46008V9.5602H14.6L14.3724 11.9911H12.6878V19H10.2141V11.9911H9V9.5602H10.2141V8.1052C10.2141 6.6147 10.6542 5.65653 11.5192 5.24842Z" fill="#F49A00"/>
</svg>
