<svg width="24" height="24" viewBox="0 0 24 24" fill="none" xmlns="http://www.w3.org/2000/svg">
<path fill-rule="evenodd" clip-rule="evenodd" d="M4 0C1.79083 0 0 1.79086 0 4V20C0 22.2091 1.79083 24 4 24H20C22.2092 24 24 22.2091 24 20V4C24 1.79086 22.2092 0 20 0H4ZM7.42151 8.79767H7.43823C8.33533 8.79767 8.89362 8.17598 8.89362 7.399C8.87683 6.60448 8.33533 6 7.45532 6C6.57538 6 6 6.60448 6 7.399C6 8.17598 6.55829 8.79767 7.42151 8.79767ZM6.15173 18H8.72412V9.90308H6.15173V18ZM17.9998 17.9998H15.4277V13.6682C15.4277 12.5797 15.0552 11.8372 14.1245 11.8372C13.4139 11.8372 12.9907 12.338 12.8047 12.8214C12.7367 12.9944 12.7201 13.2362 12.7201 13.4782V17.9998H10.1478C10.1478 17.9998 10.1815 10.6627 10.1478 9.90305H12.7201V11.0495C13.0619 10.4978 13.6735 9.71302 15.0383 9.71302C16.7307 9.71302 17.9998 10.8702 17.9998 13.3571V17.9998Z" fill="#F49A00"/>
</svg>
