<svg width="24" height="24" viewBox="0 0 24 24" fill="none" xmlns="http://www.w3.org/2000/svg">
<path fill-rule="evenodd" clip-rule="evenodd" d="M4 0C1.79083 0 0 1.79086 0 4V20C0 22.2091 1.79083 24 4 24H20C22.2092 24 24 22.2091 24 20V4C24 1.79086 22.2092 0 20 0H4ZM17.9348 9.38073C17.9348 9.24962 17.932 9.11912 17.9263 8.98923C18.5032 8.56168 19.0046 8.02799 19.4 7.4204C18.8707 7.66167 18.3011 7.82419 17.7034 7.89749C18.3135 7.5223 18.7817 6.92901 19.0027 6.22193C18.4317 6.56892 17.7996 6.82106 17.1265 6.9572C16.5874 6.36834 15.8198 6 14.97 6C13.3384 6 12.0152 7.35676 12.0152 9.0291C12.0152 9.26674 12.0413 9.49794 12.092 9.71987C9.63647 9.59319 7.45905 8.38768 6.00208 6.55463C5.74835 7.00232 5.60199 7.5223 5.60199 8.07734C5.60199 9.12839 6.12347 10.0562 6.91675 10.5989C6.43201 10.5836 5.97675 10.4471 5.57861 10.2201C5.57825 10.2328 5.57825 10.2451 5.57825 10.2588C5.57825 11.7257 6.59662 12.9508 7.94849 13.2283C7.70026 13.2978 7.43903 13.335 7.16937 13.335C6.97943 13.335 6.79419 13.3157 6.61407 13.2802C6.99042 14.4839 8.08087 15.3598 9.37427 15.3844C8.36292 16.197 7.08899 16.6811 5.70471 16.6811C5.46649 16.6811 5.2312 16.6672 5 16.6392C6.3075 17.4985 7.86011 18 9.52863 18C14.9631 17.9998 17.9348 13.3837 17.9348 9.38073Z" fill="#F49A00"/>
</svg>
