<svg width="24" height="24" viewBox="0 0 24 24" fill="none" xmlns="http://www.w3.org/2000/svg">
<path d="M10.154 13.9573C10.154 14.5511 10.7801 14.9094 11.2554 14.5876L14.1462 12.6303C14.5824 12.3349 14.5824 11.6651 14.1462 11.3697L11.2554 9.4124C10.7801 9.09058 10.154 9.44887 10.154 10.0427V13.9573Z" fill="#2A82C4"/>
<path fill-rule="evenodd" clip-rule="evenodd" d="M4 0C1.79083 0 0 1.79086 0 4V20C0 22.2091 1.79083 24 4 24H20C22.2092 24 24 22.2091 24 20V4C24 1.79086 22.2092 0 20 0H4ZM4 9C4 7.34315 5.27917 6 6.85712 6H17.1429C18.7208 6 20 7.34315 20 9V15C20 16.6569 18.7208 18 17.1429 18H6.85712C5.27917 18 4 16.6569 4 15V9Z" fill="#2A82C4"/>
</svg>
